<?xml version="1.0" encoding="UTF-8"?>
<!DOCTYPE svg PUBLIC "-//W3C//DTD SVG 1.1//EN" "http://www.w3.org/Graphics/SVG/1.1/DTD/svg11.dtd">
<!-- Creator: CorelDRAW 2019 (64-Bit) -->
<svg xmlns="http://www.w3.org/2000/svg" xml:space="preserve" width="1833px" height="480px" version="1.1" style="shape-rendering:geometricPrecision; text-rendering:geometricPrecision; image-rendering:optimizeQuality; fill-rule:evenodd; clip-rule:evenodd"
viewBox="0 0 1833 480.07"
 xmlns:xlink="http://www.w3.org/1999/xlink"
 xmlns:xodm="http://www.corel.com/coreldraw/odm/2003">
 <defs>
  <style type="text/css">
   <![CDATA[
    .fil0 {fill:#FB0102;fill-rule:nonzero}
   ]]>
  </style>
 </defs>
 <g id="Layer_x0020_1">
  <metadata id="CorelCorpID_0Corel-Layer"/>
  <path class="fil0" d="M56.57 136.64c-17.11,48.62 -34.15,97.23 -51.25,145.84 -1.12,4.1 -2.3,8.27 -3.13,12.24 -0.91,3.96 -1.53,7.86 -1.88,11.82 -0.35,4.03 -0.42,8.21 -0.14,12.1 0.28,3.9 0.97,7.44 2.37,11.68 1.38,4.25 3.4,9.18 5.97,13.5 2.65,4.31 5.92,7.99 9.74,10.98 3.83,3.06 8.21,5.43 13.42,7.31 5.22,1.87 11.34,3.13 16.48,3.82 5.15,0.63 9.26,0.63 13.36,0.63 39.29,0 78.58,0 117.88,0 0.97,-0.07 1.94,-0.14 2.92,-0.42 0.9,-0.28 1.8,-0.84 2.78,-1.46 0.97,-0.63 1.95,-1.39 2.78,-2.37 0.9,-0.97 1.67,-2.22 2.29,-3.47 0.63,-1.25 1.19,-2.57 1.67,-3.9 4.24,-12.93 8.42,-25.87 11.48,-35.46 3.06,-9.6 5,-15.79 6.12,-19.41 1.11,-3.61 1.32,-4.59 1.39,-5.49 0.07,-0.9 0.07,-1.67 -0.07,-2.44 -0.14,-0.76 -0.49,-1.53 -0.91,-2.15 -0.48,-0.63 -1.11,-1.18 -1.74,-1.53 -0.62,-0.35 -1.25,-0.56 -2.01,-0.7 -0.7,-0.14 -1.53,-0.14 -2.3,-0.2 -28.65,0 -57.3,0 -85.95,0 -1.32,0 -2.71,0 -3.9,-0.28 -1.25,-0.28 -2.36,-0.91 -3.34,-1.53 -1.04,-0.63 -1.87,-1.33 -2.64,-2.16 -0.76,-0.83 -1.32,-1.88 -1.81,-3.2 -0.41,-1.32 -0.76,-2.85 -0.83,-4.52 -0.07,-1.6 0.07,-3.27 0.49,-5.21 0.41,-2.02 1.11,-4.31 1.74,-6.61 14.32,-42.07 28.65,-84.15 42.9,-126.29 0.21,-0.77 0.35,-1.53 0.35,-2.44 -0.07,-0.9 -0.28,-1.94 -0.69,-2.78 -0.42,-0.83 -0.98,-1.46 -1.53,-1.94 -0.56,-0.49 -1.19,-0.7 -1.88,-0.84 -0.7,-0.14 -1.53,-0.14 -2.37,-0.21 -25.94,0 -51.81,0 -77.75,0 -0.62,0.07 -1.25,0.07 -1.94,0.21 -0.63,0.14 -1.33,0.35 -1.95,0.56 -0.63,0.28 -1.25,0.62 -1.88,0.97 -0.56,0.35 -1.11,0.77 -1.67,1.32 -0.55,0.49 -1.11,1.11 -1.53,1.81 -0.41,0.7 -0.69,1.46 -1.04,2.22z"/>
  <path class="fil0" d="M274.73 195.76c-0.7,0.07 -1.32,0.07 -2.09,0.28 -0.69,0.2 -1.46,0.48 -2.08,0.83 -0.63,0.35 -1.11,0.63 -1.53,1.04 -0.49,0.35 -0.91,0.84 -1.26,1.32 -0.34,0.49 -0.62,1.05 -0.9,1.6 -16.2,52.51 -32.41,105.02 -48.61,157.52 -0.14,0.56 -0.21,1.11 -0.28,1.6 0,0.56 0.07,1.05 0.21,1.53 0.14,0.49 0.42,0.97 0.83,1.39 0.42,0.42 0.98,0.84 1.46,1.11 0.49,0.28 0.98,0.42 1.4,0.49 0.41,0.07 0.83,0.14 1.25,0.21 24.76,0 49.58,0 74.34,0 0.69,0 1.39,0 2.16,-0.21 0.69,-0.21 1.39,-0.55 2.01,-0.9 0.63,-0.35 1.11,-0.7 1.53,-1.39 0.49,-0.7 0.91,-1.81 1.32,-2.92 16.62,-52.51 33.24,-105.02 49.87,-157.59 0.14,-0.49 0.21,-0.98 0.28,-1.46 0.06,-0.49 0.06,-1.04 0,-1.53 -0.07,-0.49 -0.21,-0.84 -0.49,-1.18 -0.21,-0.35 -0.56,-0.7 -0.91,-0.98 -0.34,-0.28 -0.76,-0.41 -1.11,-0.55 -0.35,-0.07 -0.76,-0.14 -1.11,-0.14 -25.45,0 -50.91,0 -76.29,0l0 -0.07z"/>
  <path class="fil0" d="M574.74 274.76c21.35,-74.07 -85.74,-122.88 -183.94,-52.58 -47.22,33.8 -63.64,100.22 -14.4,130.26 24.97,15.23 50.07,18.78 84.57,13.28 43.88,-6.95 99.45,-41.31 113.77,-91.03l0 0.07zm-77.4 7.16c-14.88,31.44 -84.57,35.26 -69.61,-6.6 4.52,-12.66 21.49,-24.2 39.15,-25.66 19.61,-1.68 40.68,10.77 30.53,32.33l-0.07 -0.07z"/>
  <path class="fil0" d="M322.32 112.57c27.66,-4.38 51,6.86 52.13,25.12 1.13,18.26 -20.38,36.61 -48.04,40.99 -27.67,4.39 -51.01,-6.86 -52.14,-25.12 -1.13,-18.26 20.38,-36.61 48.05,-40.99z"/>
  <path class="fil0" d="M622.03 194.85c-16.9,53.9 -33.8,107.86 -50.69,161.76 -0.21,1.05 -0.42,2.02 -0.35,2.92 0,0.91 0.28,1.74 0.62,2.44 0.35,0.69 0.83,1.18 1.4,1.6 0.55,0.41 1.1,0.69 1.66,0.83 0.49,0.14 0.91,0.14 1.32,0.14 24.62,0 49.17,0 73.79,0 0.7,0 1.46,0 2.23,-0.14 0.76,-0.14 1.67,-0.42 2.36,-0.69 0.69,-0.28 1.18,-0.56 1.67,-0.98 0.49,-0.42 0.9,-0.97 1.25,-1.53 0.35,-0.55 0.56,-1.11 0.83,-1.67 9.32,-31.57 18.57,-63.14 27.89,-94.72 0.63,-1.67 1.26,-3.26 2.36,-4.38 1.12,-1.04 2.79,-1.46 5.15,-1.94 2.37,-0.42 5.43,-0.84 9.46,-1.12 4.04,-0.28 9.04,-0.48 12.86,-0.55 3.83,-0.14 6.55,-0.14 8.56,0.14 2.02,0.27 3.34,0.9 4.24,1.53 0.98,0.62 1.53,1.25 2.16,2.22 0.56,0.91 1.11,2.16 1.39,4.03 0.28,1.88 0.28,4.32 0,6.47 -0.28,2.09 -0.9,3.9 -1.81,6.54 -0.9,2.64 -2.02,6.26 -6.26,19.68 -4.24,13.42 -11.61,36.72 -18.91,60.02 -0.14,0.48 -0.21,0.97 -0.28,1.53 -0.07,0.55 -0.07,1.18 0,1.74 0.07,0.55 0.28,1.11 0.63,1.66 0.34,0.56 0.76,1.05 1.31,1.4 0.56,0.34 1.19,0.55 1.74,0.62 0.56,0.07 0.98,0.14 1.39,0.14 25.25,0 50.43,0 75.67,0 0.9,0 1.81,0 2.51,-0.21 0.76,-0.21 1.38,-0.55 1.94,-0.97 0.56,-0.42 1.04,-0.91 1.46,-1.39 0.35,-0.49 0.63,-0.91 0.84,-1.32 8.69,-28.66 17.45,-57.31 26.14,-85.96 0.56,-2.02 1.19,-4.03 1.81,-7.3 0.62,-3.27 1.18,-7.86 1.53,-11.55 0.28,-3.68 0.28,-6.53 0,-10.08 -0.28,-3.55 -0.84,-7.79 -1.46,-11.13 -0.62,-3.34 -1.25,-5.7 -2.15,-7.86 -0.91,-2.08 -2.09,-3.96 -3.62,-6.32 -1.46,-2.44 -3.27,-5.43 -5.36,-8.07 -2.08,-2.71 -4.51,-5.08 -7.58,-7.51 -3.06,-2.37 -6.67,-4.8 -9.94,-6.61 -3.27,-1.81 -6.26,-2.99 -9.25,-4.17 -2.99,-1.18 -6.05,-2.37 -9.74,-3.27 -3.68,-0.9 -8.06,-1.53 -14.74,-1.81 -6.67,-0.28 -15.58,-0.28 -23.02,-0.07 -7.44,0.28 -13.28,0.77 -18.57,1.46 -5.21,0.7 -9.87,1.6 -14.11,2.58 -4.32,0.97 -8.21,2.01 -12.31,3.13 -4.04,1.11 -8.21,2.22 -12.52,2.85 -4.31,0.55 -8.83,0.55 -12.1,0.27 -3.2,-0.27 -5.15,-0.76 -7.44,-1.39 -2.3,-0.55 -5.01,-1.18 -7.37,-1.66 -2.44,-0.56 -4.53,-0.98 -7.24,-1.26 -2.64,-0.27 -5.84,-0.42 -9.52,-0.42 -3.69,0 -7.86,0.21 -11.97,0.42l0.14 -0.07z"/>
  <path class="fil0" d="M1582.64 191.86c-0.48,0 -0.9,0.07 -1.39,0.14 -0.48,0.14 -0.9,0.28 -1.32,0.56 -0.42,0.28 -0.76,0.62 -1.11,0.97 -0.28,0.35 -0.56,0.7 -0.76,1.12 -0.22,0.41 -0.43,0.9 -0.56,1.32 -16.69,54.31 -33.31,108.62 -50,162.94 -0.08,0.48 -0.21,0.97 -0.21,1.53 0,0.56 0.13,1.04 0.34,1.53 0.21,0.48 0.56,0.9 0.98,1.18 0.42,0.35 1.04,0.56 1.53,0.7 0.56,0.13 1.04,0.13 1.53,0.13 25.87,0 51.81,0 77.68,0 0.69,-0.06 1.39,-0.06 2.02,-0.27 0.62,-0.21 1.11,-0.56 1.6,-0.98 0.41,-0.42 0.76,-0.97 1.04,-1.46 0.21,-0.48 0.34,-0.9 0.48,-1.32 16.98,-54.66 33.94,-109.32 50.91,-163.98 0.07,-0.35 0.14,-0.7 0.14,-1.05 0,-0.34 0,-0.69 -0.14,-1.11 -0.14,-0.35 -0.28,-0.77 -0.55,-1.04 -0.28,-0.28 -0.63,-0.56 -1.05,-0.7 -0.42,-0.14 -0.83,-0.21 -1.32,-0.28 -0.42,-0.07 -0.9,-0.07 -1.32,-0.07 -26.22,0 -52.44,0 -78.66,0l0.14 0.14z"/>
  <path class="fil0" d="M1631.92 109.84c27.66,-4.38 51,6.87 52.13,25.12 1.13,18.26 -20.38,36.61 -48.05,41 -27.66,4.38 -51,-6.87 -52.13,-25.13 -1.13,-18.26 20.38,-36.61 48.05,-40.99z"/>
  <path class="fil0" d="M1440.57 268.36c-5.71,19.13 -16.9,55.57 -28.03,92.08 -0.07,0.28 -0.07,0.56 -0.07,0.97 0.07,0.42 0.21,0.9 0.49,1.32 0.27,0.42 0.76,0.77 1.18,0.98 0.42,0.21 0.83,0.27 1.11,0.27 0.28,0.07 0.56,0.07 0.77,0.07 25.87,0 51.74,0 77.61,0 0.41,-0.07 0.9,-0.07 1.32,-0.13 0.42,-0.07 0.76,-0.21 1.18,-0.35 0.42,-0.14 0.83,-0.35 1.32,-0.63 0.42,-0.28 0.9,-0.69 1.25,-1.11 0.35,-0.49 0.7,-0.97 0.98,-1.53 17.17,-54.94 34.29,-109.81 51.46,-164.75 0.21,-0.7 0.35,-1.39 0.28,-2.02 -0.14,-0.62 -0.49,-1.18 -0.9,-1.46 -0.42,-0.28 -0.84,-0.28 -1.26,-0.28 -9.45,0 -18.91,0 -25.24,-0.28 -6.26,-0.27 -9.39,-0.76 -12.31,-1.39 -2.92,-0.62 -5.57,-1.25 -8.35,-2.15 -2.78,-0.91 -5.7,-2.02 -8.27,-2.92 -2.58,-0.91 -4.73,-1.53 -8.21,-2.44 -3.48,-0.9 -8.2,-2.08 -12.24,-2.99 -4.03,-0.9 -7.37,-1.53 -12.03,-2.15 -4.66,-0.63 -10.57,-1.18 -16.13,-1.53 -5.57,-0.28 -10.72,-0.28 -16.14,0 -5.42,0.28 -11.2,0.9 -15.64,1.6 -4.46,0.62 -7.65,1.32 -10.79,2.22 -3.12,0.91 -6.25,1.95 -9.31,3.13 -3.07,1.19 -6.12,2.37 -9.25,3.83 -3.13,1.46 -6.4,3.13 -9.95,5.07 -3.54,1.95 -7.37,4.18 -11.27,6.96 -3.89,2.78 -7.92,6.19 -11.96,9.73 -4.03,3.55 -8.06,7.31 -11.89,11.34 -3.89,4.03 -7.65,8.41 -11.2,13.63 -3.54,5.22 -6.95,11.2 -9.87,16.69 -2.92,5.49 -5.35,10.43 -7.37,14.95 -2.02,4.59 -3.69,8.77 -5.35,14.54 -1.68,5.84 -3.28,13.28 -4.04,19.54 -0.77,6.26 -0.77,11.4 -0.48,15.44 0.27,4.03 0.9,7.02 1.52,9.73 0.63,2.72 1.19,5.08 1.81,7.17 0.63,2.08 1.19,3.96 1.95,5.7 0.7,1.81 1.6,3.55 2.64,5.28 1.04,1.82 2.23,3.62 3.55,5.43 1.39,1.81 2.92,3.62 4.31,5.08 1.39,1.53 2.57,2.71 4.1,3.89 1.53,1.18 3.34,2.37 5.43,3.55 2.09,1.18 4.52,2.36 7.3,3.27 2.78,0.9 5.91,1.53 9.11,1.87 3.13,0.35 6.33,0.35 9.32,0.35 2.99,0 5.77,0 8.28,-0.28 2.5,-0.28 4.72,-0.9 7.37,-1.8 2.64,-0.91 5.63,-2.09 8.27,-3.27 2.72,-1.19 5.08,-2.44 7.79,-3.97 2.64,-1.53 5.64,-3.33 8.35,-5.14 2.71,-1.81 5.08,-3.62 7.44,-5.71 2.36,-2.08 4.73,-4.45 6.47,-6.46 1.81,-2.09 2.99,-3.83 4.24,-5.64 1.18,-1.8 2.43,-3.68 3.62,-5.77 1.18,-2.08 2.43,-4.38 3.33,-6.74 0.91,-2.37 1.47,-4.8 2.09,-7.17 -1.18,0.63 -2.36,1.25 -3.96,1.88 -1.6,0.63 -3.55,1.18 -6.47,2.09 -2.92,0.9 -6.75,2.08 -10.22,2.64 -3.48,0.56 -6.47,0.56 -8.91,0.28 -2.43,-0.28 -4.24,-0.84 -6.12,-1.74 -1.88,-0.91 -3.82,-2.02 -5.42,-3.55 -1.67,-1.53 -2.99,-3.34 -3.9,-5.21 -0.9,-1.88 -1.32,-3.83 -1.52,-6.75 -0.22,-2.92 -0.22,-6.75 0.13,-10.01 0.28,-3.27 0.91,-5.92 1.46,-8.7 0.63,-2.78 1.25,-5.63 2.16,-8.55 0.9,-2.99 2.09,-6.05 3.55,-9.39 1.45,-3.34 3.26,-6.95 5.35,-10.5 2.09,-3.62 4.45,-7.23 7.79,-11.13 3.27,-3.89 7.51,-8.07 11.27,-11.06 3.75,-2.99 6.95,-4.79 10.08,-5.98 3.13,-1.18 6.12,-1.8 8.97,-2.15 2.85,-0.28 5.56,-0.28 8.21,0.07 2.57,0.34 5,0.97 6.81,1.87 1.81,0.91 2.92,2.02 3.96,3.2 0.98,1.19 1.81,2.37 2.37,3.9 0.63,1.53 1.04,3.34 1.18,5.14 0.21,1.81 0.14,3.62 0,5.43 -0.21,1.81 -0.48,3.62 -6.26,22.74l-0.2 -0.14z"/>
  <path class="fil0" d="M1693.08 191.86c-17.25,55.36 -34.43,110.72 -51.67,166.14 -0.14,0.63 -0.28,1.32 -0.28,2.02 0,0.7 0.21,1.46 0.62,2.09 0.35,0.62 0.91,1.04 1.61,1.32 0.69,0.28 1.6,0.49 2.22,0.55 0.63,0.07 1.04,0.07 1.46,0.07 24.06,0 48.19,0 72.26,0 0.63,0 1.18,0 2.08,-0.2 0.84,-0.21 2.02,-0.56 3.06,-1.12 1.05,-0.55 2.09,-1.39 2.79,-2.36 0.69,-0.98 1.11,-2.09 1.52,-3.27 7.66,-26.5 15.31,-53.06 22.96,-79.56 0.76,-2.22 1.53,-4.45 2.43,-6.33 0.91,-1.88 2.02,-3.34 3.2,-4.66 1.18,-1.25 2.43,-2.36 3.61,-3.27 1.19,-0.97 2.44,-1.8 3.69,-2.5 1.32,-0.76 2.71,-1.39 4.31,-1.95 1.6,-0.55 3.48,-1.11 5.36,-1.46 1.8,-0.34 3.61,-0.62 5.35,-0.62 1.74,0 3.34,0.14 4.73,0.34 1.39,0.28 2.43,0.56 3.83,1.05 1.31,0.49 2.99,1.04 4.58,1.6 13.43,-16.28 26.78,-32.55 40.2,-48.75 -0.62,-1.74 -1.18,-3.41 -2.08,-5.15 -0.91,-1.74 -2.09,-3.41 -3.69,-5.15 -1.6,-1.73 -3.62,-3.4 -5.77,-4.86 -2.16,-1.39 -4.38,-2.58 -6.68,-3.41 -2.29,-0.91 -4.59,-1.6 -7.51,-2.23 -2.85,-0.62 -6.33,-1.25 -11.13,-1.46 -4.8,-0.21 -11.05,-0.07 -16.62,0.42 -5.56,0.49 -10.57,1.32 -15.43,2.02 -4.87,0.69 -9.6,1.32 -14.26,1.74 -4.66,0.41 -9.39,0.76 -14.05,0.83 -4.66,0.07 -9.32,0 -12.94,-0.35 -3.61,-0.35 -6.12,-0.9 -10.85,-1.18 -4.79,-0.28 -11.82,-0.28 -18.84,-0.28l-0.07 -0.07z"/>
  <path class="fil0" d="M1153.28 109.73c0,3.06 2.85,8.56 1.6,8.9 -6.54,-0.55 -9.74,-6.81 -9.74,-13.77 0,-13.21 24.41,-17.8 28.38,-0.83 -2.93,-1.46 -8.77,-3.27 -12.18,-3.27 -3.89,0 -8.13,5.08 -8.13,8.9l0.07 0.07zm90.89 10.57l0 0zm-106.68 294.59l0 0c-0.41,-2.85 -0.97,-6.4 -1.46,-10.01 3.06,-0.21 6.12,-0.42 9.18,-0.63l0.28 0c5,-0.35 13.42,-1.6 27.47,-8.97 8.55,-4.52 20.45,-16.55 25.94,-24.34 8.76,-12.52 13.42,-28.17 13.42,-44.23l0 -0.77c0,-4.17 -0.41,-8.27 -1.04,-12.23 -0.07,-0.28 -0.07,-0.63 -0.14,-0.91l-0.07 -0.21c-1.25,-7.3 -3.55,-14.53 -6.96,-21.49 -9.8,-20.24 -28.65,-34.42 -50,-40.12 -4.38,-1.19 -8.9,-2.02 -13.49,-2.44l-0.76 -0.07 -0.7 -0.07c-12.8,-0.97 -25.94,1.11 -38.18,6.68 -1.18,0.55 -2.29,1.04 -3.33,1.6 -9.39,4.73 -17.67,11.33 -24.42,19.19l-0.14 0.21 -1.31 -0.63c-24.35,-11.68 -60.23,-79.41 -68.72,-110.22 -10.5,-38.11 -17.17,-102.93 -8.62,-142.43 1.32,-6.12 2.99,-14.74 3.62,-17.73 -24.69,-15.65 -58.7,5.63 -62.52,53.96 -6.19,77.89 41.58,159.33 97.29,207.73 8.07,7.03 14.25,11.55 18.71,15.02l11.96 8.7c-1.74,3.34 -3.27,6.88 -4.52,10.5 -8.56,-5.08 -16.14,-9.88 -25.46,-16.9 -8.13,-6.05 -15.58,-11.76 -23.16,-18.15 -16.76,-14.33 -25.52,-24.2 -40.75,-41.87 -18.84,-21.84 -51.18,-76.36 -52.85,-114.12 -36.58,-4.87 -59.32,64.26 9.18,127.33 44.37,40.9 73.5,53.21 129.77,76.78 -0.49,2.85 -0.77,5.7 -0.91,8.62l-0.07 0.77c-9.04,0.76 -42.76,-10.01 -52.36,-13.49 -88.11,-31.99 -108.63,-70.24 -118.85,-81.02 -14.4,10.22 -16.76,39.71 -4.04,56.75 21.56,28.86 68.36,45.48 104.88,49.58 22.67,2.58 40.12,3.69 62.86,2.71l8.35 -0.76c0.56,3.9 1.39,7.72 2.43,11.41l-1.25 0.27 -1.53 0.35 -0.07 0c-47.91,9.81 -85.88,7.72 -131.71,-6.95 -13.08,-4.18 -29.98,-14.19 -32.13,-15.37 -4.11,3.4 -11.9,61.75 67.59,62.38 19.96,0.14 39.99,-3.76 57.17,-9.25 16.2,-5.22 30.94,-11.55 47.36,-17.87 1.6,3.06 3.34,5.98 5.35,8.83l-2.29 2.08c-0.49,0.56 -1.12,1.05 -1.74,1.6 -10.99,9.39 -38.04,20.87 -52.02,25.39 -31.29,10.08 -45.06,8.48 -76.15,4.86 3.75,41.32 50.07,36.31 76.36,25.95 26.63,-10.51 44.3,-30.4 63.91,-50.01 2.23,2.3 4.59,4.45 7.09,6.47 -1.67,3.76 -3.55,6.89 -5.7,10.09 -11.4,16.62 -39.71,38.18 -56.47,45.82 -17.25,7.86 -27.12,8.35 -29.7,8.84 1.61,10.78 12.87,16.62 26.08,16.55 39.65,-0.35 65.38,-51.05 72.61,-65.65l4.1 -8.21c2.65,1.53 5.43,2.85 8.28,4.04l-2.99 9.87c-0.14,0.42 -0.28,0.9 -0.42,1.39l0 0.07c-1.74,5.43 -5.01,12.59 -10.43,21.7 -20.17,33.94 -38.46,39.08 -40.55,40.12 4.6,8.07 18.64,10.23 29.21,5.92 25.8,-10.43 29.7,-48.55 34.22,-69.96l1.11 -5.78c2.78,0.77 5.56,1.33 8.49,1.74l0.07 0.35c4.72,44.58 -15.23,66.07 -16.49,68.15 13.7,2.37 25.6,-0.14 31.92,-10.57 6.12,-10.08 3.2,-27.12 1.67,-39.43 13.91,-0.48 30.11,-5.21 40.69,-8.69 33.58,-11.2 55.84,-39.78 65.09,-73.16 0.9,-3.2 2.3,-6.47 3.06,-9.88 5.35,0 11.33,-0.55 11.33,-7.3 0,-1.46 -1.31,-5.84 -2.01,-6.95 -2.09,-3.34 -10.99,-8.98 -10.99,-18.22 0,-2.02 1.18,-5.36 1.6,-7.31 4.38,-0.34 10.57,-4.86 10.57,-9.73 0,-7.3 -12.38,-11.13 -16.9,-15.58 -4.45,-4.45 -9.95,-15.65 -9.95,-22.53 0,-4.18 -2.08,-14.61 4.04,-14.61 6.47,0 32.48,13.29 32.48,-26.77 -10.15,4.87 -17.53,8.13 -27.75,0.14 -11.96,-9.32 -2.02,-41.52 20.44,-41.52 4.87,0 8.35,1.04 10.78,3.83 2.16,2.43 3.69,7.44 3.83,11.61 4.52,-2.99 7.79,-6.95 11.12,-11.55 2.02,-2.78 5.92,-13.35 5.92,-17.66 0,-2.99 -1.53,-4.03 -1.32,-6.4 0.35,-3.82 5.63,-8.9 -1.05,-13.14 -5.28,-3.34 -15.71,2.85 -33.59,-6.12 -2.36,-1.18 -4.93,-2.99 -7.02,-3.55 0.07,-4.52 1.6,-5.21 1.6,-9.73 0,-7.1 -22.12,-16 -29.69,-20.66 -5.29,-3.27 -10.16,-6.61 -14.33,-10.78 -5.84,-5.91 -8.7,-10.71 -9.46,-13.84 -1.18,-0.55 -2.29,-0.97 -4.1,-0.97 -6.68,0 -11.69,5.08 -13.01,10.57 -1.46,-1.53 -2.57,-2.64 -4.66,-4.04 -2.08,-1.45 -4.38,-2.64 -6.46,-3.54 -14.96,-6.4 -24.9,-6.75 -40.83,-15.16 -5.91,3.96 -10.85,10.36 -8.9,18.64 -7.51,-3.97 -14.25,-3.27 -22.32,-2.09 -4.87,0.7 -20.38,2.85 -24.34,2.57 -3.9,0 -9.32,-0.69 -12.52,-1.32 -0.35,4.52 -2.44,8.21 -2.44,13.77 0,5.5 1.67,8.97 2.44,10.57 -9.18,0 -13.77,0.07 -21.14,1.53 -7.65,1.53 -13.28,1.95 -21.01,1.67 -2.29,9.74 -2.64,14.61 2.58,24.2 1.88,3.48 6.12,9.74 7.92,11.55 -4.03,1.39 -11.33,2.78 -15.43,3.27 0,11.47 4.93,27.67 7.92,38.31 8.84,31.58 24.41,57.93 44.03,83.39 1.94,2.5 3.75,4.59 5.7,6.47 2.01,-1.95 3.48,-3.2 5.7,-4.87 18.36,-14.26 35.82,-20.31 60.85,-20.31 11.9,0 26.5,4.24 34.64,8.34 10.98,5.57 17.38,9.95 25.59,18.23 11.68,11.68 18.91,25.66 23.02,41.93 8.41,33.03 -3.34,72.32 -31.02,92.28 -4.87,3.48 -9.32,6.06 -14.81,8.84 -8.76,4.38 -24.55,8.48 -37,8.9l-0.35 -0.14zm106.68 -294.59c-1.04,4.59 -5.22,10.64 -7.3,14.61 -1.32,-0.98 -3.48,-3.83 -5.07,-5.5 -2.09,-2.15 -3.27,-4.1 -4.66,-6.68 3.61,0 6.46,-0.2 9.04,-0.69 3.68,-0.62 4.87,-1.53 7.99,-1.74z"/>
 </g>
</svg>
